<?xml version="1.0" encoding="utf-8"?>
<!-- Generator: Adobe Illustrator 23.0.0, SVG Export Plug-In . SVG Version: 6.00 Build 0)  -->
<svg version="1.1" id="Capa_1" xmlns="http://www.w3.org/2000/svg" xmlns:xlink="http://www.w3.org/1999/xlink" x="0px" y="0px"
	 viewBox="0 0 200 100" style="enable-background:new 0 0 200 100;" xml:space="preserve">
<style type="text/css">
	.st0{display:none;fill:#FFFFFF;}
	.st1{fill:#87898B;}
	.st2{fill:#86888A;}
	.st3{fill:#4384B5;}
	.st4{fill:#B0B2B4;}
	.st5{fill:#9F2242;}
	.st6{fill:#E55A26;}
	.st7{fill:#7FB241;}
	.st8{fill:#F4B01A;}
	.st9{fill:#64B7DF;}
	.st10{display:none;fill:#E55A26;}
	.st11{display:none;fill:#F4B01A;}
	.st12{fill:#8A898C;}
	.st13{fill:#A02042;}
	.st14{fill:#006EAB;}
</style>
<g>
	<rect x="33" y="20.7" class="st0" width="132.8" height="59"/>
	<g>
		<g>
			<g>
				<path class="st1" d="M132.3,89.9c-0.2,0.5-0.4,0.9-0.8,1.3c-0.4,0.4-0.8,0.7-1.3,0.9c-0.5,0.2-1,0.3-1.6,0.3
					c-0.7,0-1.4-0.2-2-0.5c-0.6-0.3-1.1-0.8-1.4-1.4c-0.3-0.6-0.5-1.3-0.5-2c0-0.5,0.1-1,0.3-1.5c0.2-0.5,0.5-0.9,0.8-1.3
					c0.4-0.4,0.8-0.7,1.3-0.9c0.5-0.2,1-0.3,1.5-0.3c0.9,0,1.6,0.2,2.2,0.7c0.6,0.5,1.1,1.1,1.4,1.8l-0.6,0
					c-0.1-0.3-0.3-0.6-0.5-0.8c-0.2-0.2-0.4-0.5-0.7-0.6c-0.3-0.2-0.6-0.3-0.9-0.4c-0.3-0.1-0.6-0.1-1-0.1c-0.6,0-1.2,0.2-1.7,0.5
					c-0.5,0.3-0.9,0.7-1.2,1.2c-0.3,0.5-0.5,1.1-0.5,1.7c0,0.6,0.2,1.2,0.5,1.7c0.3,0.5,0.7,0.9,1.2,1.2c0.5,0.3,1.1,0.5,1.7,0.5
					c0.3,0,0.7,0,1-0.1c0.3-0.1,0.6-0.2,0.9-0.4c0.3-0.2,0.5-0.4,0.7-0.6c0.2-0.3,0.4-0.5,0.5-0.8L132.3,89.9z"/>
				<path class="st1" d="M137.3,84.5c0.7,0,1.3,0.2,2,0.5c0.6,0.4,1.1,0.8,1.4,1.4c0.4,0.6,0.5,1.3,0.5,2c0,0.7-0.2,1.4-0.5,2
					c-0.4,0.6-0.8,1.1-1.4,1.4c-0.6,0.4-1.3,0.5-2,0.5c-0.7,0-1.3-0.2-1.9-0.5c-0.6-0.3-1.1-0.8-1.4-1.4c-0.4-0.6-0.5-1.3-0.5-2
					c0-0.5,0.1-1,0.3-1.5c0.2-0.5,0.5-0.9,0.8-1.3c0.4-0.4,0.8-0.7,1.3-0.9C136.2,84.6,136.7,84.5,137.3,84.5 M137.3,91.9
					c0.4,0,0.9-0.1,1.3-0.3c0.4-0.2,0.8-0.4,1.1-0.7c0.3-0.3,0.5-0.7,0.7-1.1c0.2-0.4,0.3-0.8,0.3-1.3c0-0.6-0.1-1.2-0.4-1.7
					c-0.3-0.5-0.7-0.9-1.2-1.3c-0.5-0.3-1.1-0.5-1.7-0.5c-0.6,0-1.2,0.2-1.7,0.5c-0.5,0.3-0.9,0.7-1.2,1.3c-0.3,0.5-0.4,1.1-0.4,1.7
					c0,0.5,0.1,0.9,0.3,1.3c0.2,0.4,0.4,0.8,0.7,1.1c0.3,0.3,0.7,0.6,1.1,0.7C136.4,91.8,136.8,91.9,137.3,91.9"/>
				<path class="st1" d="M158.9,89.9c-0.2,0.5-0.4,0.9-0.8,1.3c-0.4,0.4-0.8,0.7-1.3,0.9c-0.5,0.2-1,0.3-1.6,0.3
					c-0.7,0-1.4-0.2-2-0.5c-0.6-0.3-1.1-0.8-1.4-1.4c-0.4-0.6-0.5-1.3-0.5-2c0-0.5,0.1-1,0.3-1.5c0.2-0.5,0.5-0.9,0.8-1.3
					c0.4-0.4,0.8-0.7,1.3-0.9c0.5-0.2,1-0.3,1.5-0.3c0.9,0,1.6,0.2,2.2,0.7c0.6,0.5,1.1,1.1,1.4,1.8l-0.6,0
					c-0.1-0.3-0.3-0.6-0.5-0.8c-0.2-0.2-0.4-0.5-0.7-0.6c-0.3-0.2-0.6-0.3-0.9-0.4c-0.3-0.1-0.6-0.1-1-0.1c-0.6,0-1.2,0.2-1.7,0.5
					c-0.5,0.3-0.9,0.7-1.2,1.2c-0.3,0.5-0.4,1.1-0.4,1.7c0,0.6,0.1,1.2,0.4,1.7c0.3,0.5,0.7,0.9,1.2,1.2c0.5,0.3,1.1,0.5,1.7,0.5
					c0.3,0,0.7,0,1-0.1c0.3-0.1,0.6-0.2,0.9-0.4c0.3-0.2,0.5-0.4,0.7-0.6c0.2-0.3,0.4-0.5,0.5-0.8L158.9,89.9z"/>
				<path class="st1" d="M161.2,83.5l-0.6,0l0-1.3l0.6,0L161.2,83.5z M161.2,92.2l-0.6,0l0-7.5l0.6,0L161.2,92.2z"/>
				<path class="st1" d="M170.5,89.9c-0.3,0.8-0.8,1.4-1.4,1.9c-0.6,0.4-1.4,0.6-2.3,0.6c-0.7,0-1.4-0.2-2-0.5
					c-0.6-0.3-1.1-0.8-1.5-1.4c-0.4-0.6-0.5-1.3-0.5-2c0-0.5,0.1-1,0.3-1.5c0.2-0.5,0.5-0.9,0.8-1.3c0.4-0.4,0.8-0.7,1.2-0.9
					c0.5-0.2,1-0.3,1.5-0.3c0.5,0,1,0.1,1.5,0.3c0.5,0.2,0.9,0.5,1.3,0.9c0.4,0.4,0.6,0.8,0.8,1.3l-6.7,2.7c0.3,0.7,0.7,1.2,1.3,1.5
					c0.6,0.4,1.2,0.6,2,0.6c0.6,0,1.1-0.1,1.5-0.3c0.4-0.2,0.7-0.4,1-0.7c0.3-0.3,0.5-0.6,0.6-1L170.5,89.9z M163.4,88.5
					c0,0.2,0,0.5,0.1,0.7l6.1-2.5c-0.3-0.5-0.7-0.9-1.2-1.2c-0.5-0.3-1.1-0.5-1.7-0.5c-0.5,0-0.9,0.1-1.3,0.3
					c-0.4,0.2-0.8,0.4-1.1,0.7c-0.3,0.3-0.5,0.7-0.7,1.1C163.5,87.6,163.4,88,163.4,88.5"/>
				<path class="st1" d="M187.5,89.9c-0.2,0.5-0.4,0.9-0.8,1.3c-0.3,0.4-0.8,0.7-1.3,0.9c-0.5,0.2-1,0.3-1.6,0.3
					c-0.7,0-1.3-0.2-2-0.5c-0.6-0.3-1.1-0.8-1.4-1.4c-0.3-0.6-0.5-1.3-0.5-2c0-0.5,0.1-1,0.3-1.5c0.2-0.5,0.5-0.9,0.8-1.3
					c0.4-0.4,0.8-0.7,1.3-0.9c0.5-0.2,1-0.3,1.5-0.3c0.9,0,1.6,0.2,2.2,0.7c0.6,0.5,1.1,1.1,1.4,1.8l-0.6,0
					c-0.1-0.3-0.3-0.6-0.5-0.8c-0.2-0.2-0.4-0.5-0.7-0.6c-0.3-0.2-0.5-0.3-0.9-0.4c-0.3-0.1-0.6-0.1-1-0.1c-0.6,0-1.2,0.2-1.7,0.5
					c-0.5,0.3-0.9,0.7-1.2,1.2c-0.3,0.5-0.4,1.1-0.4,1.7c0,0.6,0.1,1.2,0.5,1.7c0.3,0.5,0.7,0.9,1.2,1.2c0.5,0.3,1.1,0.5,1.7,0.5
					c0.3,0,0.7,0,1-0.1c0.3-0.1,0.6-0.2,0.9-0.4c0.3-0.2,0.5-0.4,0.7-0.6c0.2-0.3,0.4-0.5,0.5-0.8L187.5,89.9z"/>
				<path class="st1" d="M189.8,83.4l-0.6,0l0-1.3l0.6,0L189.8,83.4z M189.8,92.2l-0.6,0l0-7.5l0.6,0L189.8,92.2z"/>
				<path class="st1" d="M199.2,88.5l0,3.7l-0.6,0l0-1.8c-0.3,0.6-0.8,1.1-1.4,1.4c-0.6,0.4-1.2,0.5-2,0.5c-0.7,0-1.4-0.2-2-0.5
					c-0.6-0.3-1.1-0.8-1.4-1.4c-0.4-0.6-0.5-1.3-0.5-2c0-0.5,0.1-1,0.3-1.5c0.2-0.5,0.5-0.9,0.8-1.3c0.4-0.4,0.8-0.7,1.2-0.9
					c0.5-0.2,1-0.3,1.5-0.3c0.7,0,1.3,0.2,2,0.5c0.6,0.4,1.1,0.8,1.4,1.4C199,87.1,199.2,87.8,199.2,88.5 M198.7,88.5
					c0-0.6-0.2-1.2-0.5-1.7c-0.3-0.5-0.7-0.9-1.2-1.2c-0.5-0.3-1.1-0.5-1.7-0.5c-0.6,0-1.2,0.2-1.7,0.5c-0.5,0.3-0.9,0.7-1.2,1.2
					c-0.3,0.5-0.5,1.1-0.5,1.7c0,0.6,0.2,1.2,0.5,1.7c0.3,0.5,0.7,0.9,1.2,1.2c0.5,0.3,1.1,0.5,1.7,0.5c0.6,0,1.2-0.1,1.7-0.5
					c0.5-0.3,0.9-0.7,1.2-1.2C198.5,89.6,198.7,89.1,198.7,88.5"/>
				<path class="st1" d="M149.4,92.4c-0.1,0-0.2,0-0.2-0.1l-6.2-6.9l0,6.7c0,0.1-0.1,0.3-0.3,0.3c-0.2,0-0.3-0.1-0.3-0.3l0-7.5
					c0-0.1,0.1-0.2,0.2-0.3c0.1,0,0.2,0,0.3,0.1l6.1,6.9l0-6.9c0-0.2,0.1-0.3,0.3-0.3c0.2,0,0.3,0.1,0.3,0.3l0,7.6
					C149.7,92.3,149.6,92.4,149.4,92.4C149.5,92.4,149.4,92.4,149.4,92.4"/>
				<path class="st1" d="M178.6,92.4c-0.1,0-0.2,0-0.2-0.1l-6.2-6.9l0,6.7c0,0.1-0.1,0.3-0.3,0.3c-0.2,0-0.3-0.1-0.3-0.3l0-7.5
					c0-0.1,0.1-0.2,0.2-0.3c0.1,0,0.2,0,0.3,0.1l6.2,6.9l0-6.9c0-0.2,0.1-0.3,0.3-0.3c0.2,0,0.3,0.1,0.3,0.3l0,7.6
					C178.9,92.2,178.8,92.3,178.6,92.4C178.7,92.4,178.6,92.4,178.6,92.4"/>
				<rect x="160.7" y="84.7" class="st1" width="0.6" height="7.5"/>
				<rect x="189.3" y="84.7" class="st1" width="0.6" height="7.5"/>
			</g>
			<g>
				<path class="st2" d="M0.8,89.1l0-3.9l0.8,0l0,3.8c0,1.4,0.8,2.3,2.1,2.3c1.3,0,2.1-0.7,2.1-2.2l0-3.9l0.8,0l0,3.8
					c0,1.9-1.2,3-2.9,3C2,92,0.8,91,0.8,89.1"/>
				<polygon class="st2" points="8.3,85.2 9,85.2 13.4,90.5 13.4,85.2 14.2,85.2 14.2,91.9 13.5,91.9 9,86.4 9,91.9 8.3,91.9 				
					"/>
				<path class="st2" d="M18.7,85.2l2.6,0c1.6,0,2.6,0.8,2.6,2.1l0,0c0,1.4-1.3,2.2-2.7,2.2l-1.7,0l0,2.4l-0.8,0L18.7,85.2z
					 M21.3,88.8c1.2,0,1.9-0.6,1.9-1.5l0,0c0-1-0.7-1.5-1.9-1.4l-1.8,0l0,2.9L21.3,88.8z"/>
				<path class="st2" d="M25.2,85.2l3,0c0.9,0,1.5,0.2,2,0.7c0.3,0.3,0.5,0.8,0.5,1.3l0,0c0,1.1-0.8,1.8-1.9,1.9l2.1,2.7l-1,0
					l-2-2.6l-2,0l0,2.6l-0.8,0L25.2,85.2z M28.1,88.6c1,0,1.8-0.5,1.8-1.4l0,0c0-0.8-0.7-1.3-1.8-1.3l-2.2,0l0,2.7L28.1,88.6z"/>
				<path class="st2" d="M31.9,88.5L31.9,88.5c0-1.9,1.4-3.5,3.6-3.5c2.1,0,3.5,1.6,3.5,3.4l0,0c0,1.8-1.4,3.5-3.6,3.5
					C33.3,92,31.9,90.4,31.9,88.5 M38.2,88.5L38.2,88.5c0-1.5-1.2-2.8-2.8-2.8c-1.6,0-2.7,1.2-2.7,2.7l0,0c0,1.5,1.2,2.8,2.8,2.8
					C37.1,91.3,38.2,90,38.2,88.5"/>
				<path class="st2" d="M40.2,88.5L40.2,88.5c0-1.9,1.4-3.5,3.5-3.5c1.2,0,1.9,0.3,2.6,0.9l-0.5,0.6c-0.5-0.4-1.1-0.8-2.1-0.8
					c-1.5,0-2.7,1.3-2.7,2.7l0,0c0,1.6,1.1,2.8,2.8,2.8c0.8,0,1.5-0.3,2-0.7l0-1.7l-2.1,0l0-0.7l2.9,0l0,2.7c-0.6,0.6-1.6,1-2.8,1
					C41.5,92,40.2,90.4,40.2,88.5"/>
				<path class="st2" d="M48.1,85.2l3,0c0.9,0,1.5,0.2,2,0.7c0.3,0.3,0.5,0.8,0.5,1.3l0,0c0,1.1-0.8,1.8-1.9,1.9l2.1,2.7l-1,0
					l-2-2.6l-2,0l0,2.6l-0.8,0L48.1,85.2z M51,88.6c1,0,1.8-0.5,1.8-1.4l0,0c0-0.8-0.7-1.3-1.8-1.3l-2.2,0l0,2.7L51,88.6z"/>
				<path class="st2" d="M57.7,85.1l0.7,0l3.2,6.7l-0.8,0L60,90.1l-3.8,0l-0.8,1.8l-0.8,0L57.7,85.1z M59.6,89.4L58.1,86l-1.6,3.4
					L59.6,89.4z"/>
				<polygon class="st2" points="62.8,85.2 63.6,85.2 66.1,88.8 68.7,85.2 69.5,85.2 69.5,91.8 68.7,91.8 68.7,86.4 66.1,90 
					66.1,90 63.6,86.4 63.6,91.8 62.8,91.8 				"/>
				<path class="st2" d="M73.8,85.1l0.7,0l3.2,6.7l-0.8,0l-0.8-1.8l-3.8,0l-0.8,1.8l-0.8,0L73.8,85.1z M75.8,89.4L74.2,86l-1.6,3.4
					L75.8,89.4z"/>
				<path class="st2" d="M81.7,85.2l2.4,0c2.2,0,3.7,1.4,3.7,3.3l0,0c0,1.9-1.5,3.3-3.7,3.3l-2.4,0L81.7,85.2z M84.2,91.1
					c1.8,0,2.9-1.1,2.9-2.6l0,0c0-1.5-1.1-2.6-2.9-2.6l-1.6,0l0,5.3L84.2,91.1z"/>
				<polygon class="st2" points="89.3,85.2 94.4,85.1 94.4,85.8 90.1,85.8 90.1,88.1 93.9,88.1 93.9,88.8 90.1,88.8 90.1,91.1 
					94.4,91.1 94.4,91.8 89.3,91.8 				"/>
			</g>
		</g>
		<g>
			<g>
				<path class="st3" d="M120.7,88.3c0,4.8-4.2,8.7-9.4,8.7c-5.2,0-9.4-3.9-9.4-8.7c0-4.8,4.2-8.7,9.4-8.7
					C116.5,79.6,120.7,83.5,120.7,88.3"/>
			</g>
			<path class="st4" d="M111.3,84c-2.6,0-4.6,1.9-4.6,4.3c0,2.4,2.1,4.3,4.6,4.3c1.6,0,3-0.7,3.8-1.8l5.2,0c0.2-0.8,0.4-1.6,0.4-2.5
				c0-0.4,0-0.9-0.1-1.3l-4.9,0C115.1,85.3,113.4,84,111.3,84z"/>
		</g>
	</g>
	<g>
		<g>
			<polygon class="st5" points="180.2,40.6 180.2,35.4 190.9,28.1 189.4,34.4 			"/>
			<path class="st6" d="M190.9,28.1c2.9-1.9,5-3.2,5.6-3.8c0.1-0.1,0.3-0.2,0.6-0.3c0.7-0.1,1.3,0.5,1.4,0.6c0.7,0.7,0.7,1.8,0.7,2
				l0,14.5l-3.8-3.4l0-7.4l-6,4L190.9,28.1z"/>
			<polygon class="st7" points="195.4,37.7 199.2,41.1 199.2,57.3 195.4,53.4 			"/>
			<path class="st8" d="M195.4,53.4l3.8,3.9c0.1,4.6,0.1,8,0,9c0,0.1,0,0.4-0.2,0.8c-0.2,0.5-0.6,1.1-1.3,1.3
				c-0.7,0.2-1.3-0.3-1.4-0.4l-7.3-4.3l5.3-1.9l1.2,0.7V53.4z"/>
			<polygon class="st9" points="194.2,61.7 189,63.7 180.2,58.4 180.2,53.2 			"/>
		</g>
		<polygon class="st5" points="102,23.7 102,17.6 151.6,17.6 143.7,23.7 		"/>
		<path class="st10" d="M180,17.6c0,5.7,0,11.4,0,17l-6.1-4.8v-6.2h-30.3l7.9-6.1h25.9"/>
		<polygon class="st7" points="174.1,29.9 174.1,61.6 180.2,66.3 180.2,34.7 		"/>
		<polygon class="st11" points="173.9,61.5 180,66.2 180,73.7 134.1,73.7 139.9,67.6 173.9,67.6 		"/>
		<polygon class="st9" points="140,67.7 134.2,73.8 102,73.8 102,67.7 		"/>
		<path class="st6" d="M151.6,17.6c0.8,0,7.8,0,14.4,0c5.5,0,10.9-0.1,11.7,0c0.5,0.1,1,0.4,1,0.4c0.8,0.4,1.1,1.1,1.2,1.3
			c0.2,0.4,0.3,0.8,0.3,1v14.4l-6.1-4.8v-6.2h-30.4L151.6,17.6z"/>
		<path class="st8" d="M174.1,67.7v-6.1l6.1,4.7c0,0.2,0,1,0,2.1c0,0.8,0,1.8,0,2.5c0,0.2,0,0.5-0.2,0.9c-0.1,0.1-0.3,0.8-1,1.3
			c-0.6,0.5-1.3,0.6-1.6,0.7l-43.3,0l5.8-6.1L174.1,67.7z"/>
		<g>
			<path class="st12" d="M104.3,41.1h2.5l2.7,7.3l2.7-7.3h2.5l-4.2,10.4h-2L104.3,41.1z"/>
			<path class="st12" d="M116.3,41.1h2.3v10.3h-2.3V41.1z"/>
			<path class="st12" d="M121.2,41.1h4.7c1.3,0,2.3,0.4,3,1c0.6,0.6,0.9,1.4,0.9,2.4c0,1.7-0.9,2.7-2.2,3.2l2.5,3.7h-2.7l-2.2-3.3
				h-1.8v3.3h-2.3V41.1z M125.8,46.1c1.1,0,1.7-0.6,1.7-1.5c0-1-0.7-1.5-1.8-1.5h-2.3v3H125.8z"/>
			<path class="st12" d="M134.3,43.2h-3.1v-2.1h8.6v2.1h-3.1v8.2h-2.3V43.2z"/>
			<path class="st12" d="M141.3,47v-5.9h2.3v5.8c0,1.7,0.8,2.5,2.2,2.5s2.2-0.8,2.2-2.5v-5.9h2.3v5.8c0,3.1-1.8,4.7-4.5,4.7
				S141.3,50,141.3,47z"/>
			<path class="st12" d="M155.8,41h2.1l4.4,10.4h-2.4l-0.9-2.3h-4.4l-0.9,2.3h-2.3L155.8,41z M158.2,47.1l-1.4-3.3l-1.4,3.3H158.2z"
				/>
			<path class="st12" d="M163.9,41.1h2.3v8.2h5.2v2.1h-7.4V41.1z"/>
		</g>
	</g>
	<g>
		<g>
			<path class="st13" d="M24.7,5h4.1c1,0,1.8,0.3,2.4,0.8c0.4,0.4,0.6,0.9,0.6,1.6v0c0,1.1-0.6,1.7-1.3,2.1c1.1,0.4,1.8,1,1.8,2.3v0
				c0,1.7-1.3,2.6-3.3,2.6h-4.2V5z M28.4,8.9c1,0,1.7-0.4,1.7-1.3v0c0-0.7-0.6-1.2-1.6-1.2h-2.3v2.5H28.4z M28.9,12.9
				c1.1,0,1.7-0.4,1.7-1.3v0c0-0.8-0.6-1.3-1.9-1.3h-2.5v2.6H28.9z"/>
			<path class="st13" d="M37.2,4.9h1.5l4,9.5H41l-0.9-2.3h-4.3l-0.9,2.3h-1.6L37.2,4.9z M39.5,10.6l-1.6-3.8l-1.5,3.8H39.5z"/>
			<path class="st13" d="M44.2,5h4c1.1,0,2,0.4,2.6,0.9c0.5,0.5,0.7,1.2,0.7,2v0c0,1.5-0.9,2.5-2.2,2.9l2.4,3.6H50l-2.2-3.3h-2v3.3
				h-1.6V5z M48.1,9.6C49.3,9.6,50,9,50,8.1v0c0-1-0.7-1.6-1.9-1.6h-2.3v3.2H48.1z"/>
			<path class="st13" d="M53.7,5h1.6v9.4h-1.6V5z"/>
			<path class="st13" d="M57.7,5h1.6v7.9H64v1.5h-6.3V5z"/>
			<path class="st13" d="M64.7,9.7L64.7,9.7c0-2.7,2-4.9,4.7-4.9s4.7,2.2,4.7,4.8v0c0,2.7-2,4.9-4.7,4.9
				C66.7,14.5,64.7,12.4,64.7,9.7z M72.5,9.7L72.5,9.7c0-1.9-1.3-3.4-3.1-3.4c-1.8,0-3,1.5-3,3.3v0c0,1.8,1.3,3.4,3.1,3.4
				C71.3,13,72.5,11.5,72.5,9.7z"/>
			<path class="st13" d="M75.7,9.7L75.7,9.7c0-2.7,1.9-4.9,4.7-4.9c1.7,0,2.7,0.6,3.5,1.5l-1,1.2c-0.7-0.7-1.5-1.2-2.5-1.2
				c-1.7,0-3,1.5-3,3.3v0c0,1.8,1.3,3.4,3,3.4c1.1,0,1.8-0.5,2.6-1.2l1,1.1c-0.9,1-2,1.7-3.7,1.7C77.7,14.5,75.7,12.4,75.7,9.7z"/>
			<path class="st13" d="M85.7,5h1.6v3.9h4.3V5h1.6v9.4h-1.6v-4h-4.3v4h-1.6V5z"/>
			<path class="st13" d="M95.5,5h6.7v1.5h-5.1v2.4h4.5v1.5h-4.5v2.5h5.2v1.5h-6.8V5z"/>
		</g>
		<g>
			<path class="st7" d="M0.8,33.3V49c0,6.3,1.3,11.3,3.7,15.3l12.3-28L0.8,33.3z"/>
			<path class="st9" d="M17,48.7V36.4l-0.2,0l-12.3,28c0,0.1,0.1,0.1,0.1,0.1l15.4-6.7C18.1,55.8,17,52.8,17,48.7"/>
			<polygon class="st14" points="85.8,41.5 85.8,41.8 85.9,41.7 			"/>
			<polygon class="st6" points="17,35.8 17,17.7 0.8,33 0.8,33.3 16.8,36.3 			"/>
			<polygon class="st14" points="70.6,39.4 70.5,39.3 70.5,39.5 			"/>
			<polygon class="st7" points="56.6,17.6 55.3,17.6 55,17.6 39.4,17.6 38.7,17.6 38.7,35.4 56.9,18 			"/>
			<polygon class="st8" points="70.6,39.4 85.8,41.5 85.9,41.7 102,17.6 101.5,17.6 			"/>
			<polygon class="st14" points="17,36.4 17,35.8 16.8,36.3 			"/>
			<polygon class="st7" points="102,73.8 102,17.6 85.9,41.7 			"/>
			<polygon class="st5" points="17,17.6 0.8,17.6 0.8,33 17,17.7 			"/>
			<polygon class="st8" points="94.3,58.4 85.8,73.8 102,73.8 			"/>
			<polygon class="st5" points="85.9,41.7 85.8,41.8 85.8,73.8 85.8,73.8 94.3,58.4 			"/>
			<polygon class="st9" points="70.5,39.5 70.5,63.4 70.6,63.4 85.8,41.5 70.6,39.4 			"/>
			<path class="st8" d="M45.3,70.2c0.7-0.5,1.4-1,2-1.5l0.2,0.1c2.1-1.9,3.9-4.1,5.2-6.9l-14,5L45.3,70.2z"/>
			<path class="st5" d="M19.2,73.9c2.6,0.5,5.4,0.8,8.5,0.8c3.2,0,6.1-0.3,8.8-0.9c3.3-0.7,6.3-1.9,8.8-3.6l-6.6-3.3L19.2,73.9z"/>
			<path class="st7" d="M26.2,60.6c-2.4-0.3-4.5-1.2-6.1-2.7l-1,16c0,0,0.1,0,0.1,0l19.5-7L26.2,60.6z"/>
			<path class="st6" d="M38.7,36.3v12.7c0,7.9-4.3,11.6-10.8,11.6c-0.6,0-1.1,0-1.7-0.1l12.5,6.3l14-5c0-0.1,0.1-0.2,0.1-0.3
				l-14-25.2L38.7,36.3z"/>
			<path class="st9" d="M38.8,36.4l14,25.2c1.6-3.5,2.5-7.8,2.5-13v-5.2v-1.3L38.8,36.4z"/>
			<path class="st8" d="M20.1,57.8L4.6,64.4c3.1,4.9,8,8,14.3,9.4c0,0,0.1,0,0.1,0L20.1,57.8C20.1,57.8,20.1,57.8,20.1,57.8"/>
			<polygon class="st8" points="38.8,36.4 55.3,42.1 55.3,41.6 55.4,41.8 57.3,18.6 56.9,18 38.7,35.4 38.7,36.2 			"/>
			<polygon class="st9" points="84.7,17.6 70.6,39.4 101.5,17.6 			"/>
			<polygon class="st14" points="38.7,36.2 38.7,36.3 38.8,36.4 			"/>
			<polygon class="st5" points="70.5,39.3 57.3,18.6 55.4,41.8 55.6,42.1 70.5,39.4 			"/>
			<polygon class="st6" points="55.6,42.1 70.3,63.4 70.5,63.4 70.5,39.4 			"/>
		</g>
	</g>
</g>
<g>
</g>
<g>
</g>
<g>
</g>
<g>
</g>
<g>
</g>
<g>
</g>
</svg>
